<?xml version="1.0" encoding="utf-8"?>
<!-- Generator: Adobe Illustrator 16.0.0, SVG Export Plug-In . SVG Version: 6.00 Build 0)  -->
<!DOCTYPE svg PUBLIC "-//W3C//DTD SVG 1.1//EN" "http://www.w3.org/Graphics/SVG/1.1/DTD/svg11.dtd">
<svg version="1.1" id="Layer_1" xmlns="http://www.w3.org/2000/svg" xmlns:xlink="http://www.w3.org/1999/xlink" x="0px" y="0px"
	 width="203px" height="39.667px" viewBox="0 0 203 39.667" enable-background="new 0 0 203 39.667" xml:space="preserve">
<g>
	<g>
		<g>
			<circle fill="#FFFFFF" cx="15.055" cy="15.562" r="3.893"/>
			<path fill="#FFFFFF" d="M15.056,15.563"/>
		</g>
		<g>
			<path fill="#FFFFFF" d="M7.67,17.778c0.713-0.012,2.971,0.345,4.46,1.49c1.489,1.145,2.488,2.453,2.89,3.128
				c0.124,0.198,0.263,0.429,0.304,0.706c0.056-0.274,0.145-0.53,0.246-0.673c0.271-0.429,1.5-2.019,2.114-2.546
				c1.113-0.956,2.355-1.892,5.376-2.161l-0.021,4.098c-0.552,0.016-1.714,0.339-2.724,1.185c-1.029,0.861-2.163,2.529-2.521,3.717
				c-0.358,1.188-0.419,2.175-0.44,2.887l-0.053,7.952l-3.839,0.018l-0.013-7.937c-0.011-0.746-0.161-2.272-0.56-3.029
				c-0.399-0.756-1.27-2.837-2.837-3.84c-0.477-0.305-1.203-0.942-2.37-0.943L7.67,17.778z"/>
		</g>
		<g>
			<path fill="#FFFFFF" d="M15.3,7.761c0.102,0.126,0.272,0.314,0.455,0.438c0.23,0.156,3.119,1.995,5.997,4.884
				c0.906,0.909,3.349,3.841,3.362,7.468c0.012,3.24-1.821,5.569-2.04,5.804c-0.687,0.769-3.179,2.764-4.631,2.942l-0.02,4.213
				c1.802-0.353,4.841-1.524,6.564-3.267c1.723-1.744,3.155-3.838,3.799-6.479c0.74-3.038,0.197-6.498-0.74-8.496
				c-1.257-2.679-3.409-5.211-6.113-7.375l-6.644-4.926l-6.621,4.96c-2.693,2.177-4.834,4.719-6.078,7.404
				c-0.928,2.002-1.454,5.465-0.7,8.5c0.656,2.638,2.098,4.726,3.83,6.46c1.731,1.735,4.775,2.892,6.58,3.236l-0.04-4.212
				c-1.453-0.171-3.955-2.155-4.645-2.92c-0.22-0.233-2.064-2.555-2.067-5.794c-0.004-3.627,2.426-6.571,3.327-7.484
				c2.864-2.903,5.744-4.756,5.974-4.913C15.029,8.078,15.199,7.888,15.3,7.761z"/>
		</g>
	</g>
	<g>
		<path fill="#FFFFFF" d="M39.72,24.837c-0.104-1.14-0.806-1.793-1.91-1.793c-1.238,0-1.984,1.079-1.984,3.191
			c0,1.535,0.328,2.979,2.119,2.979c1.134,0,1.671-0.806,1.805-1.854h3.388c-0.313,2.829-2.298,4.534-5.133,4.534
			c-3.551,0-5.7-2.224-5.7-5.78c0-3.542,2.357-5.75,5.356-5.75c3.283,0,5.118,1.66,5.402,4.473H39.72z"/>
		<path fill="#FFFFFF" d="M44.388,31.61V20.647h3.103V31.61H44.388z"/>
		<path fill="#FFFFFF" d="M51.849,26.721c0-0.846,0.525-1.374,1.455-1.374c0.735,0,1.381,0.649,1.381,1.374H51.849z M57.787,28.334
			c0.044-2.882-1.701-4.926-4.603-4.926c-2.514,0-4.438,1.679-4.438,4.286c0,2.686,1.939,4.144,4.453,4.144
			c1.828,0,3.797-0.653,4.334-2.626h-2.969c-0.225,0.459-0.675,0.687-1.17,0.687c-0.825,0-1.545-0.623-1.545-1.564H57.787z"/>
		<path fill="#FFFFFF" d="M58.26,23.635h3.102l1.372,5.038l1.356-5.038h2.982l-2.64,7.975h-3.459L58.26,23.635z"/>
		<path fill="#FFFFFF" d="M70.649,26.721c0-0.846,0.525-1.374,1.456-1.374c0.735,0,1.38,0.649,1.38,1.374H70.649z M76.588,28.334
			c0.045-2.882-1.7-4.926-4.603-4.926c-2.514,0-4.438,1.679-4.438,4.286c0,2.686,1.939,4.144,4.453,4.144
			c1.828,0,3.797-0.653,4.334-2.626h-2.969c-0.225,0.459-0.675,0.687-1.17,0.687c-0.825,0-1.545-0.623-1.545-1.564H76.588z"/>
		<path fill="#FFFFFF" d="M77.841,31.61V20.647h3.102V31.61H77.841z"/>
		<path fill="#FFFFFF" d="M86.306,30.049c-0.612,0-0.986-0.276-0.986-0.675c0-1.042,1.346-0.797,2.362-1.299
			C87.756,29.175,87.397,30.049,86.306,30.049z M91.201,31.61v-0.152c-0.402-0.335-0.417-0.564-0.417-1.021v-3.726
			c0-1.901-0.224-3.302-3.925-3.302c-3.093,0-4.274,0.99-4.274,2.68h2.988c0.075-0.687,0.658-0.779,1.092-0.779
			c0.329,0,1.017,0.076,1.017,0.655c0,1.489-5.575-0.152-5.575,3.471c0,1.66,1.315,2.402,2.795,2.402
			c1.166,0,2.063-0.243,2.944-1.076l0.149,0.848H91.201z"/>
		<path fill="#FFFFFF" d="M92.284,23.635h2.834v1.247c0.699-0.958,1.455-1.475,2.627-1.475c2.059,0,3.028,1.231,3.028,3.422v4.781
			h-3.103v-4.218c0-0.792-0.208-1.492-1.083-1.492c-0.949,0-1.201,0.625-1.201,1.645v4.065h-3.103V23.635z"/>
		<path fill="#FFFFFF" d="M106.197,29.555c-1.012,0-1.221-0.973-1.221-1.809c0-0.881,0.283-1.885,1.311-1.885
			s1.325,0.958,1.325,1.84C107.612,28.627,107.27,29.555,106.197,29.555z M110.61,31.61V20.647h-3.103v3.797
			c-0.655-0.792-1.34-1.036-2.322-1.036c-1.864,0-3.311,1.721-3.311,4.368c0,2.25,1.193,4.062,3.549,4.062
			c0.997,0,1.667-0.319,2.397-1.294v1.066H110.61z"/>
		<path fill="#FFFFFF" d="M114.913,31.61V20.647h4.25l1.897,6.836l1.897-6.836h4.251V31.61h-3.16v-3.35l0.045-1.705l0.179-1.979
			h-0.029l-1.957,7.035h-2.45l-1.957-7.035h-0.029l0.148,1.614l0.075,1.706v3.715H114.913z"/>
		<path fill="#FFFFFF" d="M131.127,26.721c0-0.846,0.524-1.374,1.455-1.374c0.735,0,1.381,0.649,1.381,1.374H131.127z
			 M137.064,28.334c0.045-2.882-1.7-4.926-4.603-4.926c-2.514,0-4.438,1.679-4.438,4.286c0,2.686,1.938,4.144,4.452,4.144
			c1.829,0,3.798-0.653,4.335-2.626h-2.969c-0.226,0.459-0.676,0.687-1.171,0.687c-0.825,0-1.545-0.623-1.545-1.564H137.064z"/>
		<path fill="#FFFFFF" d="M142.86,31.61c-4.072,0.228-4.564-0.061-4.564-2.813v-3.335h-1.104v-1.827h1.149v-2.482h3.058v2.482h1.492
			v1.827h-1.492v2.893c0,0.731,0.104,0.99,0.97,0.99h0.492V31.61z"/>
		<path fill="#FFFFFF" d="M143.851,23.635h2.819v1.613h0.03c0.432-1.248,1.193-1.841,2.402-1.841c0.134,0,0.269,0.03,0.402,0.038
			v3.175c-0.209-0.031-0.433-0.092-0.642-0.092c-1.269,0-1.91,0.609-1.91,2.328v2.754h-3.103V23.635z"/>
		<path fill="#FFFFFF" d="M154.156,25.539c0.811-0.045,1.321,0.837,1.321,2.008c0,1.506-0.511,2.161-1.352,2.161
			c-0.796,0-1.352-0.654-1.352-2.161C152.774,26.649,153.09,25.539,154.156,25.539z M149.673,27.714
			c0,2.724,1.938,4.125,4.453,4.125s4.454-1.37,4.454-4.292c0-2.479-1.7-4.139-4.469-4.139
			C151.462,23.407,149.673,24.945,149.673,27.714z"/>
		<path fill="#FFFFFF" d="M163.551,29.421c-0.806,0-1.268-0.762-1.268-1.875c0-1.067,0.507-1.798,1.253-1.798
			c0.82,0,1.356,0.594,1.356,1.859C164.893,28.705,164.371,29.421,163.551,29.421z M159.24,23.635v10.678h3.103V30.82
			c0.521,0.669,1.148,1.019,1.998,1.019c1.745,0,3.654-1.14,3.654-4.276c0-2.194-1.134-4.155-3.49-4.155
			c-0.895,0-2.014,0.441-2.446,1.414h-0.029v-1.186H159.24z"/>
		<path fill="#FFFFFF" d="M172.553,30.049c-0.613,0-0.986-0.276-0.986-0.675c0-1.042,1.345-0.797,2.361-1.299
			C174.002,29.175,173.644,30.049,172.553,30.049z M177.448,31.61v-0.152c-0.403-0.335-0.418-0.564-0.418-1.021v-3.726
			c0-1.901-0.224-3.302-3.925-3.302c-3.094,0-4.274,0.99-4.274,2.68h2.989c0.074-0.687,0.657-0.779,1.091-0.779
			c0.329,0,1.017,0.076,1.017,0.655c0,1.489-5.574-0.152-5.574,3.471c0,1.66,1.314,2.402,2.794,2.402
			c1.166,0,2.063-0.243,2.944-1.076l0.149,0.848H177.448z"/>
		<path fill="#FFFFFF" d="M178.186,23.635h2.818v1.613h0.03c0.433-1.248,1.193-1.841,2.402-1.841c0.134,0,0.269,0.03,0.402,0.038
			v3.175c-0.208-0.031-0.433-0.092-0.641-0.092c-1.27,0-1.91,0.609-1.91,2.328v2.754h-3.103V23.635z"/>
		<path fill="#FFFFFF" d="M187.395,29.373v2.237h-3.102V20.647h3.102v5.423l1.984-2.436h3.626l-2.895,3.09l3.268,4.885h-3.73
			l-1.671-2.831L187.395,29.373z"/>
		<path fill="#FFFFFF" d="M196.354,29.136c0,0.319,0.119,0.562,0.328,0.725c0.194,0.154,0.463,0.246,0.766,0.246
			c0.476,0,0.98-0.154,0.98-0.722c0-1.285-4.777-0.261-4.777-3.345c0-2.039,2.071-2.632,3.697-2.632
			c1.702,0,3.699,0.396,3.878,2.512h-2.816c-0.03-0.259-0.135-0.441-0.299-0.583c-0.165-0.137-0.389-0.197-0.633-0.197
			c-0.535,0-0.877,0.167-0.877,0.562c0,1.109,4.93,0.365,4.93,3.356c0,1.658-1.343,2.781-4.207,2.781
			c-1.789,0-3.756-0.562-3.92-2.703H196.354z"/>
	</g>
</g>
</svg>
